<svg width="95" height="95" viewBox="0 0 95 95" fill="none" xmlns="http://www.w3.org/2000/svg">
<rect width="95" height="95" rx="47.5" fill="#545142"/>
<path d="M89.6688 53.7149L85.2107 52.8924C79.5441 49.1654 74.69 42.067 71.4505 32.8055L81.9306 25.5953C82.2659 25.3664 82.4965 25.0136 82.5718 24.6147C82.647 24.2157 82.5606 23.8032 82.3317 23.4678C82.1028 23.1325 81.75 22.9019 81.351 22.8267C80.9521 22.7514 80.5395 22.8378 80.2042 23.0667L69.5819 30.3886C65.992 28.2417 62.9072 25.346 60.5378 21.8988C58.1685 18.4517 56.5703 14.5342 55.8522 10.4134L56.7154 5.80296C56.752 5.60626 56.7496 5.40425 56.7082 5.20849C56.6668 5.01272 56.5873 4.82703 56.4741 4.662C56.3609 4.49698 56.2164 4.35586 56.0487 4.2467C55.881 4.13754 55.6934 4.06248 55.4967 4.02581C55.3 3.98914 55.098 3.99157 54.9023 4.03296C54.7065 4.07435 54.5208 4.1539 54.3558 4.26706C54.1908 4.38022 54.0496 4.52477 53.9405 4.69247C53.8313 4.86017 53.7563 5.04772 53.7196 5.24443L52.9173 9.56036C49.2107 15.3488 42.2747 20.1217 32.8305 23.4221L26.4835 14.1911C26.2492 13.8544 25.8907 13.6247 25.487 13.5523C25.0832 13.4799 24.6673 13.5709 24.3306 13.8052C23.9939 14.0395 23.7641 14.398 23.6918 14.8017C23.6194 15.2055 23.7104 15.6214 23.9447 15.9581L30.3831 25.3211C28.234 28.9103 25.3362 31.9939 21.8873 34.3615C18.4384 36.7291 14.5195 38.3252 10.3977 39.0408L5.82793 38.1877C5.62789 38.151 5.42258 38.1541 5.22374 38.1968C5.02489 38.2395 4.8364 38.3209 4.66902 38.4364C4.50163 38.5519 4.35864 38.6993 4.24821 38.8701C4.13778 39.0408 4.06206 39.2317 4.02539 39.4317C3.98871 39.6318 3.9918 39.8371 4.03447 40.0359C4.07714 40.2348 4.15856 40.4233 4.27407 40.5906C4.50737 40.9287 4.8654 41.1602 5.26939 41.2343L9.90014 42.0873C15.5159 45.7939 20.1975 52.7096 23.4979 62.1437L13.2107 69.2523C13.039 69.3626 12.8912 69.5063 12.7761 69.6749C12.661 69.8435 12.5809 70.0334 12.5406 70.2335C12.5004 70.4337 12.5008 70.6398 12.5418 70.8398C12.5827 71.0397 12.6635 71.2294 12.7792 71.3975C12.8949 71.5657 13.0433 71.7089 13.2154 71.8186C13.3875 71.9282 13.58 72.0022 13.7813 72.0361C13.9825 72.07 14.1886 72.063 14.3871 72.0157C14.5857 71.9684 14.7727 71.8816 14.9371 71.7606L25.3258 64.5099C28.9253 66.6637 32.0167 69.5702 34.3883 73.0302C36.7598 76.4902 38.3554 80.422 39.0657 84.5561L38.2431 88.9838C38.2064 89.1805 38.2088 89.3825 38.2502 89.5783C38.2915 89.7741 38.3711 89.9598 38.4843 90.1248C38.5974 90.2898 38.742 90.431 38.9097 90.5401C39.0774 90.6493 39.265 90.7243 39.4618 90.7609H39.7461C40.1016 90.7596 40.4454 90.634 40.718 90.4059C40.9907 90.1778 41.1749 89.8615 41.2389 89.5118L42.0818 85.0131C45.8087 79.3973 52.897 74.5736 62.1585 71.3341L69.3382 81.7634C69.5805 82.0598 69.9254 82.254 70.3044 82.3076C70.6834 82.3611 71.0686 82.2701 71.3835 82.0525C71.6984 81.8349 71.9198 81.5067 72.0037 81.1333C72.0877 80.7598 72.0279 80.3685 71.8364 80.0371L64.5653 69.4452C66.7407 65.8764 69.6588 62.8176 73.1212 60.4766C76.5837 58.1355 80.5095 56.5672 84.6319 55.878L89.1103 56.7107H89.3946C89.7986 56.7471 90.2005 56.6214 90.5119 56.3615C90.8233 56.1015 91.0186 55.7285 91.055 55.3245C91.0913 54.9205 90.9657 54.5186 90.7058 54.2073C90.4458 53.8959 90.0728 53.7005 89.6688 53.6642V53.7149ZM54.5726 17.0853C56.9699 23.28 61.227 28.5801 66.7588 32.2571L58.2386 38.1166C54.268 36.0044 52.3385 33.0391 52.4197 29.0989C52.4353 28.9741 52.4353 28.8479 52.4197 28.7231L54.5726 17.0853ZM43.5543 48.2718L37.4612 52.4963C36.8114 50.3155 35.7228 48.2905 34.2623 46.5454L43.5543 48.2718ZM35.7044 43.7223C37.4702 42.6071 38.9542 41.0987 40.0406 39.3149L44.1027 45.2455L35.7044 43.7223ZM45.3111 50.7598L43.7472 59.219C42.6351 57.4453 41.1264 55.954 39.3399 54.8625L45.3111 50.7598ZM42.3864 37.4159C44.5693 36.7737 46.5979 35.692 48.3475 34.2374L46.6211 43.5598L42.3864 37.4159ZM48.3171 51.2168L52.5416 57.3099C50.3616 57.9567 48.3366 59.0417 46.5907 60.4986L48.3171 51.2168ZM50.9371 49.6529L59.0612 51.1558C57.3847 52.2573 55.9703 53.7133 54.9179 55.421L50.9371 49.6529ZM49.6068 44.1183L51.1605 35.72C52.2839 37.4807 53.7993 38.9579 55.5881 40.036L49.6068 44.1183ZM51.3331 46.6266L57.4262 42.4021C58.0895 44.5826 59.1919 46.6043 60.6657 48.3429L51.3331 46.6266ZM51.7495 15.7956L49.4443 28.3372C48.4869 29.9608 47.2042 31.3689 45.6769 32.4734C44.1495 33.5778 42.4104 34.3547 40.5687 34.7553L34.5873 26.0625C41.7974 23.4323 47.6163 19.9491 51.7596 15.7855L51.7495 15.7956ZM32.2313 28.0427L38.0908 36.5527C35.9786 40.5234 33.0132 42.4326 29.0731 42.3716C28.9416 42.354 28.8084 42.354 28.677 42.3716L17.1204 40.3305C23.3272 37.9305 28.6162 33.6296 32.2313 28.0427V28.0427ZM15.9831 43.1637L28.3419 45.408C29.9658 46.365 31.3743 47.6474 32.4788 49.1749C33.5833 50.7023 34.3599 52.4416 34.7599 54.2836L26.0671 60.265C23.4573 53.1158 20.0451 47.307 15.9831 43.1637ZM40.3046 77.9045C37.8993 71.6776 33.6154 66.3538 28.0474 62.6718L36.5675 56.8123C40.5382 58.9245 42.4677 61.8898 42.3864 65.83C42.3842 65.9812 42.4047 66.1318 42.4474 66.2769L40.3046 77.9045ZM43.209 78.92L45.5142 66.4292C46.4712 64.8052 47.7537 63.3968 49.2811 62.2923C50.8085 61.1878 52.5478 60.4111 54.3898 60.0111L60.3712 68.7039C53.1915 71.3138 47.3726 74.7665 43.209 78.92V78.92ZM62.6967 66.7338L56.8372 58.2035C58.8682 54.3039 61.7929 52.3846 65.6316 52.3846H65.7433L77.9295 54.6391C71.7176 56.9883 66.3928 61.2161 62.6967 66.7338V66.7338ZM66.5658 49.4701C64.9419 48.5131 63.5334 47.2307 62.4289 45.7032C61.3244 44.1758 60.5478 42.4365 60.1478 40.5945L68.8406 34.6131C71.4505 41.7928 74.9337 47.6117 79.0567 51.7753L66.5658 49.4701Z" fill="#DFDACA"/>
</svg>
